<?xml version="1.0" standalone="no"?>
<!DOCTYPE svg PUBLIC "-//W3C//DTD SVG 20010904//EN"
 "http://www.w3.org/TR/2001/REC-SVG-20010904/DTD/svg10.dtd">
<svg version="1.0" xmlns="http://www.w3.org/2000/svg"
 width="600.000000pt" height="600.000000pt" viewBox="0 0 600.000000 600.000000"
 preserveAspectRatio="xMidYMid meet">
<metadata>
Created by potrace 1.14, written by Peter Selinger 2001-2017
</metadata>
<g transform="translate(0.000000,600.000000) scale(0.100000,-0.100000)"
fill="#000000" stroke="none">
<path d="M3094 5679 c-8 -13 -145 -19 -166 -8 -17 9 -24 8 -33 -5 -12 -16
-141 -46 -198 -46 -15 0 -30 -7 -33 -15 -3 -8 -21 -20 -40 -27 -19 -6 -34 -15
-34 -19 0 -4 -15 -10 -32 -14 -18 -4 -50 -20 -70 -36 -20 -16 -42 -29 -48 -29
-7 0 -24 -8 -38 -18 -15 -10 -49 -29 -75 -43 -26 -13 -64 -41 -83 -61 -19 -21
-39 -38 -43 -38 -5 0 -24 -15 -42 -33 -19 -18 -42 -36 -53 -40 -10 -4 -16 -13
-13 -22 4 -8 -2 -17 -15 -21 -21 -6 -121 -103 -167 -161 -13 -17 -30 -48 -37
-69 -7 -21 -22 -45 -32 -54 -11 -8 -28 -31 -37 -50 -10 -19 -23 -38 -29 -42
-8 -6 -6 -11 4 -18 10 -6 11 -10 3 -10 -7 0 -13 -8 -13 -18 0 -10 -5 -23 -10
-28 -6 -6 -13 -24 -16 -40 -7 -41 -24 -93 -45 -134 -21 -43 -47 -315 -33 -345
6 -11 9 -47 8 -80 0 -33 5 -96 12 -140 7 -44 12 -91 10 -105 -1 -14 1 -30 5
-35 8 -12 21 -58 47 -170 8 -38 17 -72 19 -74 12 -16 24 31 33 139 6 69 16
143 22 165 l11 40 8 -35 c4 -21 2 -80 -7 -144 -11 -87 -11 -112 -1 -125 11
-14 10 -15 -7 -1 -18 14 -19 13 -13 -2 3 -10 0 -24 -9 -33 -11 -10 -12 -15 -3
-15 7 0 9 -3 6 -7 -4 -3 -1 -13 5 -22 7 -9 2 -7 -11 4 l-24 20 12 -24 c9 -16
12 -73 11 -182 0 -106 3 -159 10 -159 6 0 8 -15 4 -40 -5 -28 -3 -40 5 -40 9
0 10 -17 5 -61 -5 -45 -3 -63 6 -69 9 -6 7 -10 -9 -15 -19 -6 -21 -14 -23 -98
-4 -204 -13 38 -13 340 l0 302 -40 16 c-51 19 -78 19 -115 0 -49 -25 -60 -60
-60 -189 0 -111 1 -117 36 -193 37 -79 41 -89 69 -203 19 -79 53 -150 100
-208 29 -36 35 -52 35 -90 0 -53 33 -289 54 -392 17 -81 59 -188 98 -252 22
-36 28 -57 26 -89 l-3 -41 -70 -23 c-38 -12 -90 -26 -115 -29 -88 -14 -176
-37 -253 -69 -62 -25 -85 -40 -109 -72 -28 -38 -29 -44 -26 -122 3 -51 10 -88
19 -99 8 -9 13 -19 11 -21 -6 -7 11 -53 20 -53 5 0 7 -4 3 -9 -7 -12 55 -143
73 -154 6 -4 12 -13 12 -18 0 -28 198 -288 266 -349 189 -170 327 -254 574
-348 123 -47 350 -108 435 -117 171 -18 397 -5 520 30 44 12 94 26 110 30 49
11 205 86 275 131 144 94 283 233 377 377 136 209 224 494 195 633 -13 64 -63
138 -120 177 -56 40 -64 36 -58 -25 4 -34 2 -48 -4 -42 -7 7 -7 71 0 193 9
167 12 187 39 249 45 103 69 200 112 449 10 60 17 75 40 92 16 12 29 27 29 35
0 7 11 23 24 35 14 13 30 49 41 89 10 37 26 84 36 104 11 21 19 47 19 59 0 12
16 53 35 93 32 63 37 85 46 193 12 139 6 157 -60 189 -28 14 -40 14 -73 4 -22
-6 -42 -9 -45 -6 -7 7 17 78 33 96 7 8 22 53 34 100 12 47 27 91 32 97 15 19
32 158 31 246 -1 42 2 77 6 77 4 0 6 14 3 30 -2 17 -8 30 -12 30 -4 0 -7 19
-7 43 0 60 -11 145 -23 166 -5 10 -9 43 -9 72 1 61 -25 183 -45 214 -7 11 -17
35 -20 53 -4 17 -11 32 -15 32 -12 0 -45 79 -44 103 1 11 -13 37 -31 58 -18
21 -45 64 -62 95 -32 62 -69 104 -92 104 -17 0 -44 28 -78 83 -13 20 -30 37
-38 37 -7 0 -21 20 -31 45 -13 37 -21 45 -35 40 -22 -7 -60 14 -60 32 0 7 -9
13 -20 13 -13 0 -20 7 -20 19 0 23 -18 37 -42 33 -9 -2 -31 12 -50 30 -48 48
-102 80 -124 71 -10 -4 -15 -2 -11 3 6 10 -28 28 -75 38 -15 3 -36 16 -47 27
-14 15 -32 22 -60 22 -22 0 -39 3 -36 6 2 4 -6 13 -17 20 -18 11 -20 11 -15
-3 8 -22 1 -20 -23 4 -23 23 -42 18 -33 -8 5 -13 0 -11 -19 6 -19 17 -27 20
-31 10 -4 -8 -8 -9 -14 -3 -9 11 -162 14 -169 4z m743 -254 c-8 -8 -16 -10
-22 -4 -6 7 -5 13 5 19 20 12 32 2 17 -15z m143 -95 c0 -5 -4 -10 -10 -10 -5
0 -10 5 -10 10 0 6 5 10 10 10 6 0 10 -4 10 -10z m-1020 -340 c0 -5 -5 -10
-11 -10 -5 0 -7 5 -4 10 3 6 8 10 11 10 2 0 4 -4 4 -10z m60 -100 c0 -5 -5
-10 -11 -10 -5 0 -7 5 -4 10 3 6 8 10 11 10 2 0 4 -4 4 -10z m-100 -60 c-8
-16 -8 -20 4 -20 8 0 27 -11 42 -25 15 -14 28 -25 29 -25 1 0 24 12 50 27 l48
26 -6 -39 c-4 -21 -11 -40 -17 -42 -5 -2 -10 -9 -10 -15 1 -7 9 -2 19 11 23
27 28 27 35 5 2 -10 3 3 2 28 l-3 47 30 -17 c16 -9 29 -20 27 -25 -1 -5 5 -13
14 -18 16 -9 11 -38 -6 -38 -7 0 -6 5 1 14 9 11 8 15 -5 20 -24 9 -31 7 -31
-8 0 -8 6 -12 14 -9 8 3 13 2 12 -3 -5 -29 2 -32 31 -16 29 16 32 16 44 -1 12
-15 14 -16 20 -2 3 8 1 15 -4 15 -6 0 -10 5 -10 12 0 6 9 3 20 -7 11 -10 20
-26 20 -36 0 -10 4 -21 10 -24 5 -3 7 0 4 8 -7 20 23 44 38 29 19 -19 33 -14
15 6 -12 13 -13 20 -4 32 18 22 41 25 33 4 -4 -10 -1 -21 6 -26 11 -6 11 -8 0
-8 -7 0 -15 7 -18 15 -4 8 -10 12 -16 9 -5 -3 0 -17 13 -30 13 -14 17 -24 10
-24 -7 0 -9 -4 -6 -10 3 -5 1 -10 -5 -10 -6 0 -8 -4 -5 -10 3 -5 11 -10 16
-10 6 0 8 4 4 9 -3 5 -1 12 5 16 5 3 10 -1 10 -9 0 -9 4 -16 9 -16 14 0 20 38
7 43 -6 2 -4 3 4 3 17 -2 21 -47 5 -58 -6 -4 -2 -8 8 -8 24 0 22 -36 -3 -57
-11 -10 -20 -21 -20 -26 0 -5 7 -1 16 7 8 9 19 16 23 16 4 0 8 17 9 37 5 68
12 47 12 -35 0 -44 -5 -84 -10 -87 -15 -9 0 -27 17 -21 11 5 13 1 7 -17 -4
-12 -10 -24 -14 -27 -4 -3 -9 -31 -12 -63 -5 -56 -20 -83 -41 -70 -5 3 -1 -9
7 -26 9 -17 19 -31 21 -31 8 0 1 25 -10 33 -5 4 1 7 15 5 18 -2 24 -8 22 -23
-2 -17 0 -16 12 5 17 28 17 27 21 -30 3 -56 5 -58 17 -30 8 19 12 21 16 10 3
-8 18 -27 34 -42 21 -19 28 -33 23 -47 -5 -15 -2 -18 13 -14 12 3 30 -5 46
-20 29 -27 34 -42 11 -33 -8 3 -15 1 -15 -4 0 -6 15 -10 33 -10 21 0 36 -7 45
-20 7 -11 18 -20 25 -20 6 0 3 7 -7 15 -20 15 -11 21 10 7 19 -12 13 -40 -8
-34 -10 2 -18 -1 -18 -8 0 -7 -8 -9 -20 -5 -23 7 -26 -4 -7 -24 10 -11 8 -11
-13 0 -34 17 -139 19 -133 2 7 -17 -11 -17 -25 0 -7 8 -29 11 -63 8 -29 -2
-46 -6 -39 -11 7 -4 -9 -8 -35 -8 -26 -1 -54 -7 -63 -14 -12 -10 -14 -10 -8 0
4 6 2 12 -3 12 -6 0 -11 -7 -11 -16 0 -13 -3 -14 -14 -5 -11 9 -20 6 -44 -14
-21 -18 -32 -22 -35 -13 -3 8 -6 6 -6 -5 -1 -10 -5 -15 -11 -12 -15 9 -52 -15
-46 -31 3 -8 -1 -14 -10 -14 -9 0 -26 -8 -39 -19 -18 -13 -21 -21 -12 -30 8
-8 8 -11 -2 -11 -7 0 -10 -4 -7 -9 3 -5 0 -11 -8 -14 -8 -3 -16 2 -19 14 -4
14 -10 17 -24 12 -10 -3 -21 -11 -25 -17 -4 -6 -13 -5 -24 5 -9 8 -20 13 -23
12 -3 -2 -14 0 -24 3 -18 6 -18 6 0 20 16 12 16 15 3 24 -19 12 -50 13 -50 1
0 -5 10 -7 23 -4 22 4 22 4 2 -11 -34 -28 -49 -9 -29 38 7 17 5 17 -15 -3 -24
-24 -44 -20 -34 7 6 15 5 15 -10 4 -23 -19 -51 8 -42 40 4 16 3 19 -3 9 -7
-10 -11 -10 -17 -1 -6 9 -10 9 -16 -1 -7 -11 -9 -10 -9 4 0 10 -4 15 -10 12
-5 -3 -10 1 -10 10 0 9 -7 16 -17 14 -10 -1 -21 -1 -25 0 -5 0 -10 0 -12 -1
-2 -2 -13 6 -25 16 -18 16 -21 17 -21 3 0 -22 -35 -10 -49 16 l-11 22 6 -22
c4 -17 2 -21 -8 -18 -20 8 -88 12 -88 6 0 -3 -13 -6 -30 -7 -20 -1 -31 5 -35
17 -4 11 -12 16 -22 12 -8 -3 -19 0 -24 8 -8 12 -11 12 -19 -1 -6 -9 -10 -10
-10 -3 0 9 -8 9 -32 1 -50 -15 -76 -19 -45 -7 15 6 27 15 27 21 0 6 -7 7 -16
4 -9 -4 -24 -4 -34 -1 -19 6 -23 35 -4 35 7 0 15 14 19 30 7 31 20 39 28 18 4
-10 8 -10 15 1 5 7 15 10 21 7 11 -7 15 5 12 32 -1 6 5 12 14 12 8 0 15 5 15
10 0 6 7 10 15 10 8 0 15 9 15 20 0 11 -5 20 -11 20 -5 0 -8 4 -4 10 3 5 12 7
20 3 10 -3 15 1 16 13 0 18 1 17 9 -1 8 -19 9 -19 9 3 1 25 11 28 30 10 10
-11 11 -10 6 4 -4 9 -14 19 -23 21 -13 3 -10 7 10 15 20 8 26 16 21 28 -4 12
-3 15 5 10 7 -4 12 -2 12 3 0 6 -7 11 -15 11 -8 0 -15 5 -15 10 0 6 9 10 20
10 11 0 20 -7 20 -16 0 -8 4 -13 9 -10 9 6 -5 57 -23 85 -7 11 -5 13 8 8 10
-4 19 -1 22 8 4 8 10 12 15 9 5 -3 9 0 9 5 0 6 -4 11 -10 11 -5 0 -10 12 -10
26 0 14 -4 23 -8 20 -4 -2 -14 -1 -21 3 -9 6 -4 9 13 9 19 0 26 -6 27 -22 2
-21 2 -21 6 0 2 11 -2 34 -8 50 -7 16 -14 36 -15 44 -1 8 -5 23 -9 33 -6 13
-2 17 19 18 39 2 44 3 53 13 4 5 3 6 -4 2 -6 -3 -14 -2 -17 3 -3 5 -16 7 -29
5 -18 -4 -19 -3 -4 4 28 12 24 26 -9 33 -25 6 -24 7 16 9 l45 3 -35 7 c-19 4
-27 8 -16 9 12 1 16 6 12 17 -4 10 -2 14 6 11 7 -2 12 -10 11 -16 -2 -6 2 -11
8 -11 6 0 9 9 6 19 -3 14 -1 18 9 14 8 -3 14 0 14 6 0 6 9 11 20 11 12 0 33
12 47 26 20 20 28 23 34 12 5 -7 9 -16 9 -20 0 -5 7 -8 15 -8 11 0 15 11 15
42 0 46 14 44 16 -3 2 -37 12 -48 24 -29 7 11 10 12 10 2 0 -7 5 -10 10 -7 6
3 10 0 10 -7 0 -7 9 -19 21 -26 12 -8 18 -9 14 -3 -3 6 -1 11 4 11 6 0 11 5
11 11 0 5 -5 7 -12 3 -8 -5 -9 -2 -4 11 4 11 2 22 -6 26 -7 4 -9 11 -6 15 4 3
14 0 22 -9 8 -8 12 -17 9 -21 -12 -12 13 -6 26 7 11 10 11 8 1 -12 -10 -19 -9
-22 1 -19 8 3 16 15 20 29 7 24 7 24 8 -3 1 -32 21 -37 45 -12 20 19 20 24 1
24 -8 0 -15 -7 -15 -16 0 -8 -5 -12 -10 -9 -6 4 -8 11 -4 16 3 5 0 16 -6 24
-10 12 -10 18 0 30 18 21 23 19 10 -5z m-220 -21 c0 -6 -4 -7 -10 -4 -5 3 -10
11 -10 16 0 6 5 7 10 4 6 -3 10 -11 10 -16z m340 -7 c0 -11 -46 -32 -54 -25
-3 4 4 12 17 19 27 15 37 16 37 6z m163 1 c-7 -2 -21 -2 -30 0 -10 3 -4 5 12
5 17 0 24 -2 18 -5z m25 -44 c0 -22 -2 -29 -10 -21 -5 5 -7 19 -3 31 9 29 12
26 13 -10z m37 1 c3 -6 -1 -7 -9 -4 -18 7 -21 14 -7 14 6 0 13 -4 16 -10z
m-755 -40 c0 -5 -5 -10 -11 -10 -5 0 -7 5 -4 10 3 6 8 10 11 10 2 0 4 -4 4
-10z m946 -27 c-10 -10 -19 5 -10 18 6 11 8 11 12 0 2 -7 1 -15 -2 -18z m39
17 c3 -5 1 -10 -4 -10 -6 0 -11 5 -11 10 0 6 2 10 4 10 3 0 8 -4 11 -10z
m-1025 -20 c0 -5 -5 -10 -11 -10 -5 0 -7 5 -4 10 3 6 8 10 11 10 2 0 4 -4 4
-10z m1017 -72 c-3 -8 -6 -5 -6 6 -1 11 2 17 5 13 3 -3 4 -12 1 -19z m-10
-280 c-2 -13 -4 -3 -4 22 0 25 2 35 4 23 2 -13 2 -33 0 -45z m-1599 -353 c-3
-3 -9 2 -12 12 -6 14 -5 15 5 6 7 -7 10 -15 7 -18z m47 -15 c-4 -12 -9 -19
-12 -17 -3 3 -2 15 2 27 4 12 9 19 12 17 3 -3 2 -15 -2 -27z m532 -210 c99
-50 96 -58 -21 -59 -74 -1 -145 15 -147 33 -8 79 -11 75 38 71 27 -1 77 -19
130 -45z m1281 22 c2 -6 -3 -12 -12 -12 -8 0 -25 -13 -37 -30 -23 -30 -52 -43
-123 -56 -28 -5 -37 -4 -32 5 5 7 -2 11 -18 11 -14 0 -26 5 -26 10 0 6 4 10 9
10 5 0 24 12 42 28 59 49 184 71 197 34z m-680 -62 c7 -12 8 -20 2 -20 -18 0
-11 -20 8 -21 15 0 14 -1 -3 -8 -17 -7 -17 -8 8 -15 15 -3 25 -11 22 -16 -4
-6 1 -17 9 -26 18 -18 21 -34 5 -34 -6 0 -7 -5 -2 -12 4 -7 8 -17 10 -23 8
-38 48 -131 60 -138 7 -5 11 -12 8 -18 -4 -5 6 -14 22 -20 20 -7 24 -12 14
-18 -10 -7 -8 -12 8 -24 21 -14 21 -15 4 -32 -16 -17 -16 -17 7 -10 21 7 23 5
14 -6 -7 -8 -8 -22 -3 -34 4 -11 8 -14 8 -7 1 6 5 12 10 12 5 0 6 -12 2 -27
-6 -23 -2 -32 20 -51 16 -12 31 -32 34 -43 5 -14 13 -19 26 -16 10 3 19 0 19
-6 1 -12 34 -57 43 -57 6 0 -4 43 -12 50 -11 9 -31 50 -31 63 0 22 -32 60 -40
47 -5 -8 -9 -7 -13 4 -5 11 -1 16 13 16 11 0 20 5 20 10 0 6 -8 10 -17 8 -10
-2 -19 5 -21 16 -3 14 0 17 12 13 10 -4 16 -1 16 8 0 8 -7 15 -15 15 -8 0 -15
5 -15 11 0 6 9 8 20 4 22 -7 29 20 8 28 -8 3 -6 6 4 6 10 1 15 7 12 14 -3 8 2
14 11 14 8 0 15 -7 16 -16 0 -11 2 -12 6 -3 3 7 -1 19 -7 27 -10 12 -10 15 1
15 8 0 2 8 -14 18 -15 10 -26 20 -25 23 2 2 -2 -2 -9 -10 -10 -11 -12 -10 -11
5 0 11 -3 27 -7 36 -6 16 1 17 85 13 51 -3 96 -8 101 -11 5 -3 9 -1 9 4 0 15
-73 32 -115 26 -29 -4 -36 -3 -25 5 8 5 18 7 23 4 4 -3 24 12 43 34 22 23 37
33 40 26 20 -48 52 -78 89 -85 22 -5 47 -10 55 -12 8 -3 22 -5 30 -6 10 -1 7
-4 -7 -10 -20 -8 -54 -7 -181 5 -32 3 -51 2 -48 -4 4 -5 1 -11 -6 -13 -7 -3
-5 -7 6 -11 10 -4 15 -3 11 3 -3 6 0 10 8 10 15 0 102 -27 132 -41 11 -5 40
-13 65 -18 28 -6 35 -9 19 -10 -14 -1 -46 5 -72 13 -31 9 -44 10 -41 2 2 -6
16 -12 31 -13 15 0 29 -6 31 -12 2 -5 9 -8 17 -5 7 3 16 0 20 -6 4 -7 10 -8
14 -4 3 5 38 6 76 3 39 -3 62 -6 53 -7 -10 -1 -18 -7 -18 -13 0 -7 8 -9 23 -4
12 3 29 6 37 6 8 -1 23 -1 33 -2 9 0 17 -5 17 -11 0 -6 6 -5 16 3 13 10 17 10
25 -2 7 -11 9 -10 10 6 0 11 3 15 5 8 3 -7 12 -9 20 -6 8 3 14 0 14 -6 0 -6 9
-11 19 -11 11 0 23 -9 26 -21 6 -17 9 -19 17 -8 6 9 7 -3 3 -36 -4 -27 -8 -50
-8 -50 -23 0 -88 -75 -86 -99 0 -6 3 -6 6 2 2 6 9 12 14 12 6 0 5 -8 -1 -20
-6 -11 -15 -18 -20 -15 -4 3 -16 2 -26 -2 -15 -5 -14 -8 7 -15 24 -9 24 -9 3
-21 -12 -7 -19 -18 -17 -25 3 -7 -1 -10 -11 -6 -11 4 -19 -8 -31 -50 -13 -44
-21 -56 -36 -56 -12 0 -17 -5 -14 -10 4 -6 4 -18 1 -27 -6 -14 -8 -14 -22 3
-9 10 -13 14 -10 7 8 -16 -4 -44 -16 -37 -6 4 -8 -2 -4 -14 6 -17 2 -23 -19
-28 -20 -5 -23 -9 -13 -15 9 -6 7 -9 -10 -9 -13 0 -20 4 -17 10 3 6 1 10 -5
10 -7 0 -9 -8 -5 -20 5 -14 2 -20 -10 -20 -8 0 -18 -7 -21 -15 -9 -23 -62 -43
-126 -47 -41 -3 -55 -1 -51 7 2 7 -3 15 -11 18 -9 4 -16 2 -16 -3 0 -5 -20 -2
-45 7 -25 8 -42 19 -39 24 3 5 2 9 -3 10 -29 3 -47 9 -53 20 -5 6 -15 9 -23 6
-10 -4 -18 1 -22 13 -3 10 -18 23 -33 28 -19 6 0 7 58 4 111 -6 129 7 142 99
5 42 5 65 -2 67 -5 2 -10 12 -10 22 0 13 -6 18 -17 15 -10 -3 -36 -9 -58 -14
-58 -15 -134 -13 -150 3 -8 7 -12 16 -9 19 3 3 -3 4 -13 4 -10 -1 -22 -8 -26
-14 -12 -18 -30 -16 -23 3 5 12 1 14 -17 8 -12 -3 -30 -13 -39 -21 -25 -22
-153 -24 -176 -3 -18 16 -49 19 -70 7 -7 -5 -12 -3 -12 3 0 6 -8 4 -17 -6 -14
-14 -31 -16 -105 -12 -51 3 -95 11 -104 19 -14 11 -15 4 -13 -75 2 -59 8 -93
17 -102 11 -12 86 -21 117 -14 86 19 185 15 124 -6 -13 -4 -31 -8 -39 -8 -8
-1 -14 -8 -14 -17 1 -12 -5 -16 -22 -14 -13 1 -29 -3 -34 -10 -6 -7 -32 -16
-57 -20 -33 -5 -42 -9 -32 -16 10 -6 4 -9 -21 -10 -32 -1 -33 -2 -10 -9 l25
-8 -27 -1 c-14 -1 -28 -5 -30 -10 -4 -12 -104 -17 -140 -6 -19 5 -28 3 -28 -5
0 -6 -5 -8 -10 -5 -6 4 -8 11 -5 16 4 5 2 9 -4 9 -5 0 -11 -5 -13 -12 -2 -6
-14 5 -27 25 -14 23 -34 40 -54 46 -18 5 -24 10 -14 10 25 1 11 21 -15 21 -17
0 -18 2 -8 15 7 8 19 15 27 15 8 0 11 4 8 10 -4 6 -16 4 -31 -6 -15 -11 -24
-12 -24 -5 0 6 7 14 17 18 14 5 13 8 -6 15 -12 4 -20 12 -16 18 4 6 -1 7 -11
3 -13 -5 -16 -3 -11 10 4 11 -1 20 -14 27 -32 18 -59 71 -60 120 -1 34 -3 39
-8 20 -8 -31 -31 -38 -31 -9 0 13 -5 19 -12 17 -20 -7 -49 27 -35 41 8 8 4 11
-16 11 -20 0 -27 5 -27 20 0 11 -4 20 -9 20 -6 0 -9 9 -8 19 0 11 5 17 9 15
15 -10 8 12 -10 32 -10 11 -17 25 -14 32 2 6 -1 12 -7 12 -6 0 -11 10 -11 23
0 16 6 23 20 23 11 0 20 -5 20 -11 0 -5 5 -2 11 9 9 15 13 16 20 5 6 -10 9 -8
9 9 0 26 19 30 21 5 1 -14 2 -14 5 -3 6 20 124 27 124 8 0 -8 3 -9 8 -3 4 6
21 11 37 12 50 4 138 21 165 32 19 8 4 9 -65 6 -88 -4 -89 -4 -25 5 36 5 86
16 112 24 27 8 45 10 42 5 -3 -5 -12 -9 -20 -9 -8 0 -13 -4 -9 -9 5 -9 63 15
76 32 3 4 14 5 25 1 16 -5 17 -4 4 5 -12 10 -9 12 15 10 17 0 41 -1 55 0 20 1
22 3 10 11 -8 6 -33 9 -55 8 -22 -2 -39 2 -38 7 2 6 37 11 80 13 42 1 83 8 91
14 10 9 16 8 23 -3 12 -19 11 -36 -1 -44 -5 -3 -10 -2 -10 3 0 5 -6 9 -14 9
-8 0 -12 -6 -9 -14 3 -7 10 -13 17 -13 7 0 7 -3 1 -8 -5 -4 -28 -27 -50 -50
-34 -36 -36 -40 -13 -30 14 7 24 17 21 21 -3 5 4 6 16 2 17 -5 20 -3 14 12 -3
10 -3 15 1 11 4 -3 10 -21 13 -40 6 -43 13 -49 13 -12 0 21 3 25 9 15 8 -12
15 -13 35 -3 19 8 26 8 30 -1 2 -7 5 0 5 16 1 15 5 27 10 27 5 0 13 10 17 23
3 12 15 34 26 49 11 16 16 32 13 38 -3 5 1 10 11 10 12 0 15 6 12 25 -3 14 -1
28 3 31 5 3 9 14 9 26 0 14 5 18 16 14 12 -5 15 -2 10 10 -9 24 12 44 46 44
18 0 27 4 23 11 -4 6 -14 8 -22 4 -13 -4 -14 -3 -3 10 9 10 16 12 24 5 8 -6
17 -3 29 10 21 25 29 25 45 0z m1227 -136 c18 -108 18 -126 4 -102 -5 10 -12
46 -15 80 -3 35 -9 78 -14 97 -6 23 -6 31 1 24 5 -5 16 -50 24 -99z m-1970
-14 c8 -16 28 -41 43 -56 16 -16 21 -24 10 -21 -9 3 -34 11 -56 16 -33 9 -93
56 -81 63 58 36 65 35 84 -2z m261 -22 c10 -18 19 -28 21 -22 5 14 43 6 43 -8
0 -6 -17 -8 -43 -4 -27 4 -57 1 -82 -8 -22 -8 -34 -15 -27 -15 7 -1 10 -5 7
-11 -3 -6 -43 -9 -88 -9 -72 1 -77 2 -37 9 25 4 48 6 53 3 4 -2 7 0 7 5 0 6
11 13 25 16 13 3 37 22 52 41 35 43 48 44 69 3z m1178 13 c17 -7 17 -9 -8 -29
-30 -23 -64 -37 -73 -28 -8 8 37 66 50 65 7 0 21 -4 31 -8z m-389 -151 c3 -5
2 -10 -4 -10 -5 0 -13 5 -16 10 -3 6 -2 10 4 10 5 0 13 -4 16 -10z m953 -225
c0 -73 -2 -82 -9 -50 -4 22 -7 96 -7 165 1 116 2 120 8 50 4 -41 7 -115 8
-165z m-978 195 c0 -5 -4 -12 -10 -15 -5 -3 -10 -4 -10 -1 0 2 -3 12 -6 20 -5
12 -2 15 10 10 9 -3 16 -10 16 -14z m398 -7 c-10 -2 -28 -2 -40 0 -13 2 -5 4
17 4 22 1 32 -1 23 -4z m-438 -23 c11 -11 16 -20 11 -20 -10 0 -41 28 -41 36
0 9 11 3 30 -16z m-15 -41 c11 -17 -1 -21 -15 -4 -8 9 -8 15 -2 15 6 0 14 -5
17 -11z m-1372 -80 c4 -16 3 -18 -9 -8 -7 6 -11 15 -8 20 8 13 11 11 17 -12z
m2520 -114 c4 -8 2 -17 -3 -20 -6 -4 -10 3 -10 14 0 25 6 27 13 6z m-543 -130
c0 -8 -4 -15 -10 -15 -5 0 -10 7 -10 15 0 8 5 15 10 15 6 0 10 -7 10 -15z
m-2093 -177 c-3 -8 -6 -5 -6 6 -1 11 2 17 5 13 3 -3 4 -12 1 -19z m1113 3 c0
-5 -7 -12 -16 -15 -14 -5 -15 -4 -4 9 14 17 20 19 20 6z m138 3 c17 -5 20 -9
11 -20 -13 -16 25 -61 56 -66 11 -2 23 -6 26 -10 3 -5 17 -9 32 -10 18 -2 27
-8 27 -19 0 -18 26 -33 41 -23 5 3 9 -2 9 -10 0 -9 7 -16 16 -16 8 0 13 -4 9
-10 -3 -5 6 -17 20 -26 14 -9 24 -19 21 -21 -4 -4 -15 0 -65 26 -94 50 -241
46 -241 -6 0 -12 -6 -9 -26 11 -25 24 -32 26 -98 22 -39 -2 -97 -14 -129 -26
-32 -12 -60 -20 -63 -18 -9 9 36 41 68 47 23 5 34 14 39 31 4 14 7 20 8 14 1
-6 12 -9 26 -6 14 2 22 8 19 13 -3 5 -2 9 3 9 14 0 63 47 63 61 0 12 2 11 9 0
8 -13 12 -13 26 -1 16 13 16 14 0 20 -21 7 -16 24 9 27 11 2 22 6 25 8 6 7 31
6 59 -1z m60 -60 c-4 -3 -12 5 -18 18 -12 22 -12 22 6 6 10 -10 15 -20 12 -24z
m-788 -11 c0 -12 -2 -12 -15 1 -8 8 -15 17 -15 20 0 3 7 3 15 0 8 -4 15 -13
15 -21z m1327 -39 c-3 -3 -12 -4 -19 -1 -8 3 -5 6 6 6 11 1 17 -2 13 -5z
m-1225 -26 c-7 -7 -12 -8 -12 -2 0 14 12 26 19 19 2 -3 -1 -11 -7 -17z m563
-77 c3 -5 1 -12 -5 -16 -5 -3 -10 0 -10 7 -1 8 -6 6 -15 -6 -12 -16 -15 -17
-15 -4 0 23 34 36 45 19z m303 -173 c23 -7 42 -16 42 -21 0 -4 4 -6 9 -2 5 3
12 1 15 -4 10 -15 -50 -75 -68 -68 -8 3 -18 1 -22 -5 -4 -7 -9 -6 -15 3 -7 11
-9 11 -9 -1 0 -13 -1 -13 -11 0 -8 12 -9 10 -4 -7 5 -17 1 -22 -24 -28 -16 -3
-56 -1 -89 5 -39 7 -75 7 -101 1 -49 -11 -232 -11 -246 -1 -5 5 -14 10 -20 12
-5 1 -9 6 -8 9 1 4 -6 5 -16 2 -11 -3 -21 2 -24 11 -4 9 -16 16 -28 16 -32 0
-17 22 32 46 53 25 200 47 266 39 27 -3 62 -1 78 4 36 12 183 5 243 -11z m167
-43 c-21 -17 -37 -15 -43 3 -2 8 8 12 30 12 31 -1 32 -1 13 -15z m-815 -14 c2
-1 -1 -6 -7 -12 -7 -7 -20 -6 -44 4 l-34 15 40 -3 c22 -2 42 -3 45 -4z m504
-315 c35 -1 62 -5 59 -10 -8 -12 19 -27 37 -21 8 2 21 0 29 -4 13 -8 13 -12 1
-26 -12 -14 -12 -18 1 -26 8 -5 10 -9 4 -9 -5 0 -4 -4 2 -8 10 -6 10 -12 -2
-28 -14 -18 -14 -18 -8 4 3 13 1 22 -6 22 -6 0 -11 -8 -11 -18 0 -19 -26 -23
-68 -8 -24 8 -82 -9 -82 -25 0 -5 -7 -6 -15 -2 -14 5 -14 7 -1 22 13 15 10 16
-40 15 -30 -1 -54 1 -54 5 0 3 -12 7 -27 8 -24 1 -25 0 -9 -9 10 -6 33 -12 50
-13 17 -2 36 -3 42 -4 6 -1 11 -8 11 -16 0 -19 -2 -19 -22 1 -12 12 -19 14
-27 6 -8 -8 -17 -8 -30 -1 -11 6 -26 8 -33 5 -8 -3 -28 0 -45 5 -40 15 -57 8
-36 -14 15 -14 15 -17 2 -17 -8 0 -19 7 -24 16 -5 8 -23 16 -40 16 -18 1 -32
3 -32 6 0 8 71 72 81 72 5 0 9 6 9 14 0 8 15 26 32 40 29 22 34 23 49 11 21
-20 35 -19 19 0 -11 14 -10 14 14 5 36 -13 55 -13 36 1 -12 9 -11 10 8 6 12
-3 22 0 22 5 0 6 9 3 20 -7 15 -14 37 -19 84 -19z m98 -18 c-6 -6 -15 -8 -19
-4 -4 4 -1 11 7 16 19 12 27 3 12 -12z m-402 -28 c0 -5 -4 -10 -10 -10 -5 0
-10 5 -10 10 0 6 5 10 10 10 6 0 10 -4 10 -10z m-93 -92 c-3 -8 -6 -5 -6 6 -1
11 2 17 5 13 3 -3 4 -12 1 -19z m413 -8 c-12 -8 -12 -10 -1 -10 8 0 12 -2 9
-5 -3 -3 -13 -3 -22 1 -19 7 -11 24 12 24 15 0 15 -2 2 -10z m-30 -40 c0 -5
-4 -10 -10 -10 -5 0 -10 5 -10 10 0 6 5 10 10 10 6 0 10 -4 10 -10z m-1400
-36 c-51 -23 -152 -55 -157 -50 -3 2 6 7 19 11 13 4 41 16 63 25 54 24 67 28
90 29 13 0 8 -5 -15 -15z"/>
<path d="M3062 4782 c-7 -5 -15 -22 -18 -38 -3 -16 -2 -26 1 -22 4 3 7 13 9
21 1 8 8 22 15 31 15 18 13 20 -7 8z"/>
<path d="M3135 4770 c3 -5 13 -10 21 -10 8 0 12 5 9 10 -3 6 -13 10 -21 10 -8
0 -12 -4 -9 -10z"/>
<path d="M2656 4763 c5 -5 12 -12 16 -18 4 -6 8 -2 8 8 0 9 -7 17 -17 17 -9 0
-12 -3 -7 -7z"/>
<path d="M2645 4740 c3 -5 8 -10 11 -10 2 0 4 5 4 10 0 6 -5 10 -11 10 -5 0
-7 -4 -4 -10z"/>
<path d="M2596 4725 c-9 -26 -7 -32 5 -12 6 10 9 21 6 23 -2 3 -7 -2 -11 -11z"/>
<path d="M3097 4709 c7 -7 15 -10 18 -7 3 3 -2 9 -12 12 -14 6 -15 5 -6 -5z"/>
<path d="M2510 4591 c0 -6 5 -11 11 -11 6 0 8 -10 5 -22 -3 -13 -3 -17 0 -10
11 23 24 12 19 -15 -5 -27 -5 -27 5 -4 6 15 7 28 1 35 -5 6 -9 16 -10 21 0 14
-31 19 -31 6z"/>
<path d="M3332 4570 c0 -14 2 -19 5 -12 2 6 2 18 0 25 -3 6 -5 1 -5 -13z"/>
<path d="M3300 4571 c0 -6 4 -13 10 -16 6 -3 7 1 4 9 -7 18 -14 21 -14 7z"/>
<path d="M3442 4531 c-10 -6 -10 -10 3 -21 13 -11 15 -9 15 9 0 24 0 24 -18
12z"/>
<path d="M2547 4483 c-4 -3 -6 -22 -6 -42 l1 -36 8 40 c8 42 8 49 -3 38z"/>
<path d="M3393 4475 c0 -8 4 -12 9 -9 5 3 6 10 3 15 -9 13 -12 11 -12 -6z"/>
<path d="M3425 4469 c3 -13 10 -27 16 -33 9 -8 9 -6 1 10 -6 12 -9 24 -6 27 3
3 1 8 -5 11 -6 4 -8 -2 -6 -15z"/>
<path d="M3423 4403 c-4 -9 -1 -19 5 -21 7 -2 12 -17 12 -33 0 -17 -4 -28 -8
-25 -5 3 -19 -6 -31 -20 -17 -19 -20 -29 -12 -37 8 -8 11 -6 11 6 0 10 8 21
18 24 9 4 20 11 24 17 11 16 9 64 -3 71 -6 4 -8 13 -5 21 3 8 3 14 0 14 -2 0
-8 -8 -11 -17z"/>
<path d="M2512 4375 c-6 -14 -8 -25 -4 -25 4 0 12 11 19 25 6 14 8 25 4 25 -4
0 -13 -11 -19 -25z"/>
<path d="M3336 4353 c-6 -14 -5 -15 5 -6 7 7 10 15 7 18 -3 3 -9 -2 -12 -12z"/>
<path d="M2710 4356 c0 -2 7 -6 15 -10 8 -3 15 -1 15 4 0 6 -7 10 -15 10 -8 0
-15 -2 -15 -4z"/>
<path d="M3408 4353 c7 -3 16 -2 19 1 4 3 -2 6 -13 5 -11 0 -14 -3 -6 -6z"/>
<path d="M3385 4330 c3 -5 8 -10 11 -10 2 0 4 5 4 10 0 6 -5 10 -11 10 -5 0
-7 -4 -4 -10z"/>
<path d="M3281 4315 c-1 -13 19 -35 31 -35 4 0 8 5 8 10 0 6 -6 10 -14 10 -8
0 -17 6 -19 13 -3 6 -6 7 -6 2z"/>
<path d="M3365 4310 c3 -5 8 -10 11 -10 2 0 4 5 4 10 0 6 -5 10 -11 10 -5 0
-7 -4 -4 -10z"/>
<path d="M3335 4289 c-4 -6 -5 -12 -2 -15 2 -3 7 2 10 11 7 17 1 20 -8 4z"/>
<path d="M2500 4280 c0 -5 5 -10 11 -10 5 0 7 5 4 10 -3 6 -8 10 -11 10 -2 0
-4 -4 -4 -10z"/>
<path d="M2481 4273 c-1 -6 -4 -20 -7 -30 -5 -17 -5 -17 6 0 6 10 9 23 6 30
-3 9 -5 9 -5 0z"/>
<path d="M3286 4267 c3 -10 9 -15 12 -12 3 3 0 11 -7 18 -10 9 -11 8 -5 -6z"/>
<path d="M3360 3938 c0 -11 28 -10 35 1 3 6 -4 9 -15 8 -11 -1 -20 -5 -20 -9z"/>
<path d="M3018 3803 c12 -2 20 -9 17 -14 -3 -5 1 -6 10 -2 13 5 14 7 3 14 -7
5 -22 8 -33 7 -17 -1 -17 -1 3 -5z"/>
<path d="M2970 3781 c0 -5 -8 -12 -17 -14 -14 -4 -14 -5 3 -6 12 0 27 6 34 14
10 12 10 15 -4 15 -9 0 -16 -4 -16 -9z"/>
<path d="M2679 3332 c5 -34 6 -35 9 -8 2 16 0 32 -5 37 -5 5 -7 -7 -4 -29z"/>
<path d="M3400 3365 c0 -2 13 -18 29 -34 16 -16 26 -33 23 -37 -4 -4 -1 -4 6
0 16 10 15 26 -2 26 -8 0 -17 9 -21 19 -5 16 -35 39 -35 26z"/>
<path d="M2283 3353 c9 -2 25 -2 35 0 9 3 1 5 -18 5 -19 0 -27 -2 -17 -5z"/>
<path d="M3200 3309 c0 -5 5 -7 10 -4 6 3 10 8 10 11 0 2 -4 4 -10 4 -5 0 -10
-5 -10 -11z"/>
<path d="M3578 3303 c7 -3 16 -2 19 1 4 3 -2 6 -13 5 -11 0 -14 -3 -6 -6z"/>
<path d="M2647 3163 c-5 -29 2 -48 10 -25 3 6 11 12 19 12 8 0 14 8 14 17 0 9
-3 13 -7 10 -3 -4 -12 -2 -18 3 -9 8 -14 3 -18 -17z"/>
<path d="M2010 3165 c0 -8 5 -15 10 -15 6 0 10 7 10 15 0 8 -4 15 -10 15 -5 0
-10 -7 -10 -15z"/>
<path d="M2156 2977 c3 -10 9 -15 12 -12 3 3 0 11 -7 18 -10 9 -11 8 -5 -6z"/>
<path d="M3818 2933 c7 -3 16 -2 19 1 4 3 -2 6 -13 5 -11 0 -14 -3 -6 -6z"/>
<path d="M2448 3483 c7 -3 16 -2 19 1 4 3 -2 6 -13 5 -11 0 -14 -3 -6 -6z"/>
<path d="M2950 2729 c0 -5 5 -7 10 -4 6 3 10 8 10 11 0 2 -4 4 -10 4 -5 0 -10
-5 -10 -11z"/>
<path d="M3226 1965 c-3 -9 -6 -22 -5 -28 0 -7 5 -1 10 12 5 13 8 26 5 28 -2
2 -6 -3 -10 -12z"/>
<path d="M3192 1956 c7 -8 15 -12 17 -11 5 6 -10 25 -20 25 -5 0 -4 -6 3 -14z"/>
<path d="M2828 1953 c7 -3 16 -2 19 1 4 3 -2 6 -13 5 -11 0 -14 -3 -6 -6z"/>
<path d="M2875 1950 c3 -5 10 -10 16 -10 5 0 9 5 9 10 0 6 -7 10 -16 10 -8 0
-12 -4 -9 -10z"/>
<path d="M3048 1943 c7 -3 16 -2 19 1 4 3 -2 6 -13 5 -11 0 -14 -3 -6 -6z"/>
<path d="M2808 1933 c6 -2 18 -2 25 0 6 3 1 5 -13 5 -14 0 -19 -2 -12 -5z"/>
<path d="M1400 1800 c-9 -6 -10 -10 -3 -10 6 0 15 5 18 10 8 12 4 12 -15 0z"/>
<path d="M4337 1771 c45 -22 92 -51 104 -65 13 -14 27 -26 32 -26 6 0 3 8 -6
18 -26 29 -20 34 19 17 58 -24 54 -17 -13 20 -54 30 -96 45 -193 70 -14 4 12
-11 57 -34z"/>
<path d="M1331 1769 c-41 -25 -65 -48 -58 -55 3 -4 16 4 29 16 13 12 37 31 53
41 17 10 26 19 20 19 -5 0 -25 -9 -44 -21z"/>
<path d="M1245 1710 c-3 -5 -1 -10 4 -10 6 0 11 5 11 10 0 6 -2 10 -4 10 -3 0
-8 -4 -11 -10z"/>
<path d="M4486 1637 c3 -10 9 -15 12 -12 3 3 0 11 -7 18 -10 9 -11 8 -5 -6z"/>
<path d="M4690 1620 c0 -5 5 -10 11 -10 5 0 7 5 4 10 -3 6 -8 10 -11 10 -2 0
-4 -4 -4 -10z"/>
<path d="M1065 1600 c-3 -6 1 -7 9 -4 18 7 21 14 7 14 -6 0 -13 -4 -16 -10z"/>
<path d="M4503 1506 c-1 -58 -5 -111 -9 -118 -10 -16 -17 -105 -8 -95 23 22
42 257 25 300 -4 11 -7 -28 -8 -87z"/>
<path d="M4728 1603 c7 -3 16 -2 19 1 4 3 -2 6 -13 5 -11 0 -14 -3 -6 -6z"/>
<path d="M750 1479 c0 -5 5 -7 10 -4 6 3 10 8 10 11 0 2 -4 4 -10 4 -5 0 -10
-5 -10 -11z"/>
<path d="M1221 1384 c0 -11 3 -14 6 -6 3 7 2 16 -1 19 -3 4 -6 -2 -5 -13z"/>
<path d="M4437 1201 c-29 -84 -32 -100 -18 -85 10 10 61 140 61 155 0 5 -3 9
-8 9 -4 0 -20 -35 -35 -79z"/>
<path d="M4245 820 c-10 -11 -16 -22 -13 -25 3 -3 13 4 23 15 10 11 16 22 13
25 -3 3 -13 -4 -23 -15z"/>
<path d="M4015 790 c-3 -5 -1 -10 4 -10 6 0 11 5 11 10 0 6 -2 10 -4 10 -3 0
-8 -4 -11 -10z"/>
<path d="M4200 758 c-26 -28 -43 -58 -33 -58 9 0 68 80 59 80 -3 0 -15 -10
-26 -22z"/>
<path d="M4100 639 c-47 -53 -202 -179 -218 -179 -6 0 -12 -3 -14 -7 -7 -18
-87 -53 -104 -46 -12 4 -15 3 -10 -5 8 -13 -76 -57 -184 -98 -36 -13 -74 -28
-85 -33 -11 -5 -36 -12 -55 -15 -87 -15 -106 -19 -121 -26 -17 -10 -102 -19
-201 -22 -38 -1 -68 -6 -68 -9 0 -4 -15 -4 -32 0 -18 4 -68 6 -111 5 -43 0
-73 2 -67 6 6 4 -10 5 -35 4 -25 -1 -45 1 -45 4 0 4 -24 7 -53 8 -55 1 -161
27 -274 67 -108 39 -110 39 -78 21 87 -50 280 -105 439 -125 121 -16 343 -15
436 0 127 21 293 65 315 83 5 4 15 8 23 8 19 0 211 92 286 137 94 56 342 274
311 273 -6 -1 -30 -23 -55 -51z"/>
<path d="M1855 590 c10 -11 20 -20 23 -20 3 0 -3 9 -13 20 -10 11 -20 20 -23
20 -3 0 3 -9 13 -20z"/>
<path d="M1920 551 c0 -6 4 -13 10 -16 6 -3 7 1 4 9 -7 18 -14 21 -14 7z"/>
<path d="M1975 511 c-3 -5 -2 -12 3 -15 5 -3 9 1 9 9 0 17 -3 19 -12 6z"/>
<path d="M2000 487 c0 -7 115 -74 140 -82 34 -11 16 10 -22 26 -18 7 -35 15
-38 19 -3 3 -18 12 -35 20 -16 8 -33 16 -37 18 -5 2 -8 2 -8 -1z"/>
<path d="M3425 460 c-3 -5 -2 -10 4 -10 5 0 13 5 16 10 3 6 2 10 -4 10 -5 0
-13 -4 -16 -10z"/>
<path d="M3360 452 c-14 -6 -13 -10 4 -26 17 -17 18 -17 13 -2 -5 12 0 19 16
26 20 8 20 9 2 9 -11 0 -27 -3 -35 -7z"/>
<path d="M3426 428 c3 -5 10 -6 15 -3 13 9 11 12 -6 12 -8 0 -12 -4 -9 -9z"/>
<path d="M3316 403 c-6 -14 -5 -15 5 -6 7 7 10 15 7 18 -3 3 -9 -2 -12 -12z"/>
<path d="M2170 393 c0 -4 19 -17 43 -27 64 -28 67 -29 67 -20 0 5 -21 18 -47
29 -26 11 -51 22 -55 23 -4 2 -8 0 -8 -5z"/>
<path d="M3043 388 c2 -7 10 -12 16 -10 6 1 11 -2 11 -8 0 -5 7 -10 15 -10 8
0 15 5 15 11 0 6 7 9 15 5 9 -3 15 0 15 9 0 15 -20 16 -31 2 -3 -4 -18 -3 -33
3 -21 8 -27 7 -23 -2z"/>
<path d="M3226 383 c-6 -14 -5 -15 5 -6 7 7 10 15 7 18 -3 3 -9 -2 -12 -12z"/>
<path d="M2850 349 c0 -5 9 -9 20 -9 11 0 20 2 20 4 0 2 -9 6 -20 9 -11 3 -20
1 -20 -4z"/>
<path d="M2295 330 c3 -5 8 -10 11 -10 2 0 4 5 4 10 0 6 -5 10 -11 10 -5 0 -7
-4 -4 -10z"/>
<path d="M3367 293 c-4 -3 -7 -11 -7 -17 0 -6 5 -5 12 2 6 6 9 14 7 17 -3 3
-9 2 -12 -2z"/>
</g>
</svg>
